<svg xmlns="http://www.w3.org/2000/svg" width="16" height="16" class="icon" viewBox="0 0 1024 1024"><path d="M218.285 899.678s166.51-8.321 277.173-9.333c122.956-1.127 318.82 9.333 318.82 9.333l203.215 22.978s-317.478 18.815-522.035 18.672c-200.637-.14-492.594-18.672-492.594-18.672l215.42-22.978z" opacity=".5"/><path fill="#523805" d="M317.302 95.685c-17.797-7-32.607-5.544-39.046-2.217-30.448 15.726-40.627 41.495-40.106 71.358.468 27.013 9.883 56.35 21.244 81.1 22.001-37.565 55.41-76.357 107.938-102.194a14.69 14.69 0 0 1-1.41-2.195c-13.107-25.03-31.545-39.131-48.62-45.852zm-79.216 173.422a14.561 14.561 0 0 0 6.041 6.25c-10.412 22.694-17.086 43.397-21.963 58.531-3.274 10.156-5.74 17.803-7.984 21.864-10.147 18.362-32.514 29.813-59.018 43.38-58.719 30.059-137.742 70.51-149.19 219.56-10.715 139.495 125.542 256.199 254.191 256.199 68.784 0 109.088 11.182 147.202 21.756 33.166 9.201 64.673 17.94 111.844 18.45 48.476.52 80.115-7.365 113.84-15.773 37.115-9.251 76.759-19.132 144.161-19.132 128.647 0 254.315-118.898 238.73-268.062-14.737-141.064-85.106-173.004-138.624-197.296-25.474-11.565-47.133-21.396-57.153-40.436-1.118-2.121-2.426-7.411-4.328-15.091-3.724-15.038-9.716-39.243-20.962-66.733.237-.333.462-.678.673-1.035 16.29-27.444 33.341-64.937 36.963-102.172 3.695-38.02-6.712-77.178-46.955-102.868-15.445-9.86-39.324-11.32-62.528-4.026-23.953 7.528-48.9 24.76-67.49 55.012a14.655 14.655 0 0 0-1.536 3.4c-37.631-16.931-84.074-27.525-141.49-27.525-47 0-86.266 7.255-119.15 19.274a14.57 14.57 0 0 0-1.52-4.67c-16.41-31.34-40.29-50.242-63.826-59.502-22.812-8.98-46.914-9.392-63.184-.99-42.739 22.075-56.595 59.87-55.934 97.86.647 37.086 14.912 75.446 29.19 103.775zm441.487-115.015c48.465 28.505 79.612 68.104 99.98 105.943 11.625-22.62 21.426-48.72 23.836-73.5 2.95-30.328-5.079-57.18-33.578-75.375-5.88-3.754-20.085-6.408-38.014-.776-17.177 5.398-36.41 18.13-51.334 42.42-.278.45-.574.878-.89 1.288zM848.03 433.494c-18.476-8.964-41.209-21.624-53.757-45.471-2.285-4.339-3.651-9.354-4.292-11.694l-.03-.108c-.772-2.841-1.632-6.305-2.507-9.848l-.003-.006-.316-1.282c-2.048-8.265-4.64-18.572-8.282-30.404-7.303-23.713-18.678-53.002-37.347-81.455-36.381-55.445-102.078-110.61-228.987-110.61-117.467 0-179.367 48.348-214.89 98.042-18.269 25.553-30.086 52.28-38.398 74.994-3.686 10.074-6.609 19.137-9.204 27.192l-1.012 3.14-.252.772c-2.364 7.314-5.386 16.673-8.964 23.148-12.835 23.221-36.496 36.955-55.82 47.244-5.617 2.99-11.156 5.828-16.653 8.646-15.711 8.046-31.063 15.91-46.756 26.615-20.275 13.833-39.342 31.44-54.418 57.072-15.118 25.702-27.125 61.019-30.998 111.45-4.547 59.192 21.972 115.088 65.87 157.014 44.072 42.092 103.277 67.689 159.146 67.689 67.959 0 110.186 10.462 147.52 20.743 2.438.67 4.84 1.337 7.218 1.995 33.087 9.17 61.359 17.002 104.627 17.467 44.681.483 73.222-6.627 106.78-14.986l3.142-.784 1.653-.41c36.808-9.14 78.435-18.724 146.11-18.724 112.585 0 223.279-105.132 209.63-235.766-5.084-48.678-17.03-81.425-31.188-104.345-14.043-22.736-31.243-37.397-49.427-48.573-13.414-8.247-25.962-13.935-39.251-19.96-6.106-2.767-12.367-5.605-18.944-8.797z"/><path fill="#EACC91" d="M804.9 382.247c29.473 56.02 165.042 28.011 185.67 225.553 14.781 141.522-104.397 254.329-226.403 254.329s-148.114 34.155-244.68 33.116c-96.14-1.033-123.67-38.145-245.672-38.145-122.008 0-251.231-110.724-241.07-243.074 15.757-205.242 166.514-193.449 197.459-249.467 15.255-27.613 41.261-229.976 282.928-229.976 260.86 0 282.847 230.707 291.767 247.664z"/><path fill="#F9F5EA" d="M605.737 523.562c-57.49 17.092-88.567 27.967-154.566 9.298-69.655-19.704-154.407-166.233-308.382-50.802-157.538 149.618 0 350.665 153.975 350.665 93.029 0 123.626 32.917 235.982 32.674 62.292-.137 132.383-16.577 202.51-23.54 248.053-24.626 241.064-290.772 143.95-359.799-138.29-98.292-158.357 7.282-273.469 41.504z"/><path fill="#987A3F" d="M258.926 250.149c-27.473-54.79-40.96-125.806 19.017-157.989 13.47-7.227 62.856-3.578 92.16 52.663-54.097 28.093-86.947 65.507-111.177 105.326zm519.314 14.628c27.472-56.648 46.811-131.657-11.703-156.526-7.25-3.08-59.93-9.874-89.234 48.275 54.096 29.043 76.706 67.086 100.937 108.251z"/><path fill="#F79A99" d="M714.503 529.78c29.178 0 52.83-14.611 52.83-32.63 0-18.023-23.652-32.631-52.83-32.631-29.175 0-52.83 14.608-52.83 32.63 0 18.02 23.655 32.63 52.83 32.63zm-374.465 9.32c30.036 0 54.383-14.607 54.383-32.627 0-18.022-24.347-32.63-54.383-32.63-30.035 0-54.383 14.608-54.383 32.63 0 18.02 24.348 32.628 54.383 32.628z"/><path fill="#000504" d="M650.752 505.458c-23.76 5.19-38.871.492-46.519-16.761-6.594-14.878-2.516-45.165 15.53-53.16 18.043-8 42.154 2.881 49.816 24.198 6.384 17.762 4.933 40.533-18.827 45.723zm-254.49 1.238c23.76 5.19 38.87.491 46.519-16.762 6.594-14.877 2.516-45.164-15.53-53.163-18.043-7.996-42.154 2.885-49.816 24.202-6.384 17.762-4.933 40.532 18.827 45.723z"/><path fill="#FFF" d="M627.817 464.083c-3.388.556-6.697-2.423-7.393-6.66-.696-4.233 1.483-8.115 4.871-8.674 3.385-.556 6.697 2.425 7.394 6.659.696 4.233-1.487 8.116-4.872 8.675zM419.2 465.32c3.385.559 6.697-2.422 7.394-6.656s-1.487-8.119-4.872-8.675c-3.388-.558-6.697 2.423-7.393 6.656s1.483 8.12 4.871 8.675z"/><path fill="#523805" d="M187.307 827.383c16.811-12.18 45.524-28.476 76.162-37.335 31.022-8.973 60.75-9.447 82.783 5.076 25.709 16.943 30.197 51.124 17.467 88.81-6.17 18.266-16.033 35.756-27.642 49.559-11.756 13.982-24.392 23.13-35.7 26.522-9.906 2.972-25.135.23-43.651-9.837-17.94-9.757-36.358-25.026-51.192-42.224-14.985-17.375-25.22-35.447-28.464-50.424-1.592-7.35-1.355-13.265.135-17.856 1.413-4.353 4.227-8.403 9.567-11.916l.272-.182.263-.193zm175.046-56.688c-32.66-21.525-72.85-18.634-107.011-8.754-34.395 9.947-65.996 27.879-84.948 41.571-10.433 6.952-17.479 16.232-21.016 27.13-3.493 10.761-3.268 22.145-.904 33.076 4.675 21.586 18.227 44.008 34.904 63.341 16.823 19.512 37.932 37.163 59.371 48.822 20.86 11.343 44.866 18.508 66.037 12.156 18.69-5.606 35.813-19.216 49.684-35.714 14.023-16.677 25.659-37.394 32.967-59.026 14.225-42.107 13.575-94.486-29.084-122.602zm478.535 56.688c-16.81-12.18-45.524-28.476-76.162-37.335-31.021-8.973-60.75-9.447-82.783 5.076-25.708 16.943-30.196 51.124-17.466 88.81 6.17 18.266 16.032 35.756 27.642 49.559 11.755 13.982 24.391 23.13 35.7 26.522 9.906 2.972 25.134.23 43.65-9.837 17.941-9.757 36.359-25.026 51.195-42.224 14.983-17.375 25.22-35.447 28.461-50.424 1.592-7.35 1.355-13.265-.134-17.856-1.413-4.353-4.228-8.403-9.564-11.916l-.272-.182-.267-.193zm-175.045-56.688c32.66-21.525 72.853-18.634 107.014-8.754 34.391 9.947 65.992 27.879 84.948 41.571 10.433 6.952 17.475 16.232 21.012 27.13 3.494 10.761 3.271 22.145.904 33.076-4.672 21.586-18.23 44.008-34.903 63.341-16.823 19.512-37.932 37.163-59.369 48.822-20.863 11.343-44.869 18.508-66.036 12.156-18.693-5.606-35.814-19.216-49.688-35.714-14.02-16.677-25.658-37.394-32.967-59.026-14.222-42.107-13.575-94.486 29.085-122.602z"/><path fill="#EACC91" d="M185.815 818.729c33.169-24.193 112.195-64.155 162.956-30.48 63.45 42.09 9.532 161.713-46.147 178.524-57.683 17.417-175.935-108.857-116.809-148.044zm655.521 1.61c-32.7-23.46-110.613-62.21-160.66-29.556-62.557 40.813-9.397 156.812 45.498 173.114 56.87 16.887 173.457-105.56 115.162-143.559z"/><path fill="#523805" d="M533.899 591.24c17.815-4.19 31.44-26.41 31.44-37.61 0-12.402-16.697-14.53-37.291-14.53-20.597 0-37.292 2.128-37.292 14.53 0 11.2 13.623 33.417 31.44 37.61v19.333h.562a11.235 11.235 0 0 0-.562.351c-17.449 11.844-43.336 24.167-65.153 24.705-10.64.263-19.581-2.282-26.363-8.271-6.814-6.018-12.657-16.565-14.924-34.728a8.777 8.777 0 1 0-17.42 2.176c2.613 20.908 9.728 36.001 20.723 45.709 11.027 9.737 24.757 13.002 38.417 12.662 25-.614 52.157-13.285 70.718-25.181 19.24 11.828 47.396 24.368 73.28 24.865 14.073.27 28.195-3.025 39.597-12.72 11.416-9.708 18.915-24.831 21.74-45.84a8.777 8.777 0 1 0-17.396-2.341c-2.437 18.104-8.534 28.701-15.72 34.81-7.2 6.123-16.679 8.754-27.884 8.54-22.87-.439-49.834-12.718-67.924-24.48a8.847 8.847 0 0 0-.415-.257h.427V591.24z"/><path fill="#FFF" d="M518.612 549.947c.296 2.557-3.49 5.096-8.461 5.672-4.97.577-9.24-1.03-9.535-3.586-.298-2.558 3.49-5.097 8.461-5.673 4.971-.577 9.24 1.03 9.535 3.587z"/></svg>